<?xml version="1.0" encoding="UTF-8" standalone="no"?>
<!-- Created with Inkscape (http://www.inkscape.org/) -->

<svg
   width="297mm"
   height="210mm"
   viewBox="0 0 297 210"
   version="1.1"
   id="svg5"
   xml:space="preserve"
   inkscape:version="1.2.2 (732a01da63, 2022-12-09)"
   sodipodi:docname="logov1.svg"
   inkscape:export-filename="logov1.png"
   inkscape:export-xdpi="96"
   inkscape:export-ydpi="96"
   xmlns:inkscape="http://www.inkscape.org/namespaces/inkscape"
   xmlns:sodipodi="http://sodipodi.sourceforge.net/DTD/sodipodi-0.dtd"
   xmlns="http://www.w3.org/2000/svg"
   xmlns:svg="http://www.w3.org/2000/svg"><sodipodi:namedview
     id="namedview7"
     pagecolor="#ffffff"
     bordercolor="#000000"
     borderopacity="0.25"
     inkscape:showpageshadow="2"
     inkscape:pageopacity="0.0"
     inkscape:pagecheckerboard="0"
     inkscape:deskcolor="#d1d1d1"
     inkscape:document-units="mm"
     showgrid="false"
     inkscape:zoom="1.0129245"
     inkscape:cx="609.62095"
     inkscape:cy="400.32598"
     inkscape:window-width="1920"
     inkscape:window-height="991"
     inkscape:window-x="-9"
     inkscape:window-y="-9"
     inkscape:window-maximized="1"
     inkscape:current-layer="layer1" /><defs
     id="defs2" /><g
     inkscape:label="Vrstva 1"
     inkscape:groupmode="layer"
     id="layer1"><g
       id="g875"><text
         xml:space="preserve"
         style="font-size:33.1942px;font-family:Tahoma;-inkscape-font-specification:Tahoma;fill:#000000;stroke:#000000;stroke-width:1.24479"
         x="53.15522"
         y="115.35151"
         id="text174"><tspan
           sodipodi:role="line"
           id="tspan172"
           style="font-style:normal;font-variant:normal;font-weight:normal;font-stretch:normal;font-size:33.1942px;font-family:'Old English Text MT';-inkscape-font-specification:'Old English Text MT, Normal';font-variant-ligatures:normal;font-variant-caps:normal;font-variant-numeric:normal;font-variant-east-asian:normal;fill:#ffffff;stroke:#000000;stroke-width:1.24479"
           x="53.15522"
           y="115.35151"><tspan
   style="fill:#1a1a1a;stroke:#1a1a1a"
   id="tspan762">L</tspan>AW   <tspan
   style="font-style:normal;font-variant:normal;font-weight:normal;font-stretch:normal;font-size:33.1942px;font-family:'Courier New';-inkscape-font-specification:'Courier New, Normal';font-variant-ligatures:normal;font-variant-caps:normal;font-variant-numeric:normal;font-variant-east-asian:normal"
   id="tspan540">ABASE</tspan></tspan></text><path
         style="fill:#000080;stroke-width:0.0302963"
         d="m 138.08589,117.14943 c 0.0676,-0.80658 0.16694,-1.15276 0.44992,-1.56783 0.24948,-0.36595 0.56761,-0.62324 1.0956,-0.88611 l 0.33326,-0.16592 2.22556,-0.0217 2.22556,-0.0217 0.29287,-0.28111 c 0.36882,-0.354 0.66229,-0.58912 0.87598,-0.70179 l 0.16663,-0.0879 0.008,-10.47495 0.008,-10.474948 h -3.92665 c -3.12974,0 -3.92339,0.008 -3.91053,0.0379 0.009,0.0208 0.75142,1.65342 1.65011,3.62798 2.73601,6.011508 3.10734,6.798958 3.2416,6.874178 0.0448,0.0251 0.0509,0.0719 0.0437,0.33608 -0.0154,0.55896 -0.13289,0.97225 -0.39052,1.37326 -0.27386,0.4263 -0.58469,0.68848 -1.14273,0.96388 l -0.36012,0.17772 h -3.35926 -3.35925 l -0.34033,-0.17009 c -0.4288,-0.21431 -0.65196,-0.37251 -0.90743,-0.64332 -0.34978,-0.37079 -0.5594,-0.83358 -0.62645,-1.38307 -0.0541,-0.44307 -0.0459,-0.56854 0.0435,-0.66499 0.17184,-0.18542 0.78077,-1.48617 3.50238,-7.481608 0.74807,-1.64792 1.35441,-3.00194 1.34743,-3.00892 -0.007,-0.007 -0.25606,-0.022 -0.5535,-0.0334 l -0.5408,-0.0207 -0.008,-1.18913 -0.008,-1.18913 h 4.99925 c 2.74958,0 4.99924,-0.007 4.99924,-0.0151 0,-0.008 -0.0461,-0.0799 -0.10248,-0.15905 -0.0564,-0.0792 -0.14137,-0.21897 -0.1889,-0.31061 -0.0771,-0.14871 -0.0865,-0.19758 -0.0869,-0.45445 -4e-4,-0.26039 0.009,-0.30697 0.0948,-0.48883 0.11361,-0.2398 0.45812,-0.61836 0.71432,-0.78492 0.32174,-0.20917 0.71188,-0.23076 1.0776,-0.0596 0.28053,0.13128 0.69478,0.54804 0.83132,0.83635 0.0904,0.19097 0.099,0.2343 0.0986,0.49702 -4e-4,0.25687 -0.01,0.30574 -0.0869,0.45445 -0.0475,0.0916 -0.13253,0.23142 -0.1889,0.31061 -0.0564,0.0792 -0.10248,0.15076 -0.10248,0.15905 0,0.008 2.24966,0.0151 4.99924,0.0151 h 4.99925 l -0.008,1.18913 -0.008,1.18913 -0.5418,0.0217 c -0.29799,0.0119 -0.54717,0.0271 -0.55374,0.0336 -0.007,0.007 0.60024,1.36013 1.34845,3.00792 2.73376,6.020538 3.33099,7.296198 3.5026,7.481368 0.0891,0.0961 0.0952,0.18545 0.0444,0.64161 -0.0637,0.57092 -0.27226,1.03209 -0.64383,1.42335 -0.25967,0.27344 -0.45503,0.41061 -0.89895,0.6312 l -0.33267,0.16531 h -3.35831 -3.35831 l -0.30783,-0.15053 c -0.58737,-0.28724 -0.89611,-0.53874 -1.16813,-0.95157 -0.28452,-0.43179 -0.40057,-0.8227 -0.41805,-1.40817 -0.008,-0.26884 -0.002,-0.31527 0.0428,-0.34056 0.13427,-0.0755 0.50346,-0.85837 3.24179,-6.874288 0.89878,-1.97456 1.64133,-3.60715 1.6501,-3.62798 0.0127,-0.0302 -0.78107,-0.0379 -3.91071,-0.0379 h -3.92665 l 0.008,10.474948 0.008,10.47495 0.16979,0.0909 c 0.23988,0.12841 0.44661,0.2924 0.83207,0.66004 l 0.33535,0.31984 2.22469,0.0217 2.2247,0.0217 0.33326,0.16592 c 0.39874,0.19852 0.6435,0.36762 0.84973,0.58706 0.45534,0.48449 0.63032,0.94756 0.69403,1.83659 l 0.0179,0.24994 h -9.12173 -9.12174 z m 17.14957,-0.83315 c -0.0616,-0.25306 -0.49295,-0.67057 -0.81795,-0.79167 -0.10416,-0.0388 -0.49083,-0.0483 -2.56094,-0.0625 l -2.43825,-0.0168 -0.17393,-0.25751 c -0.43593,-0.64546 -0.95209,-1.00919 -1.59014,-1.12053 -0.23897,-0.0417 -0.8657,-0.0428 -1.04853,-0.002 -0.52459,0.11757 -1.13097,0.57858 -1.48707,1.13058 l -0.17059,0.26443 -2.11299,0.001 c -1.16214,7.8e-4 -2.28619,0.0124 -2.49789,0.0258 -0.36359,0.023 -0.39436,0.03 -0.55563,0.12734 -0.33156,0.20002 -0.75122,0.69089 -0.64705,0.75684 0.0245,0.0155 3.45399,0.0271 8.08185,0.0273 l 8.03938,4.7e-4 z m -7.56791,-14.25441 -0.008,-11.035438 h -0.4696 -0.46959 l -0.008,11.035438 -0.008,11.03543 h 0.48482 0.48483 z m -7.30902,2.82477 c 0.75192,-0.0431 0.92374,-0.10491 1.21604,-0.43769 0.11154,-0.127 0.28362,-0.42071 0.28362,-0.48411 0,-0.0238 -6.05598,-0.0213 -7.38734,0.003 -0.89282,0.0164 -1.09563,0.0277 -1.09563,0.0612 0,0.1259 0.41715,0.60999 0.6109,0.70893 0.1697,0.0866 0.36694,0.12313 0.79788,0.14754 0.59724,0.0338 4.98788,0.0347 5.57453,0.001 z m 19.61686,-0.0286 c 0.33886,-0.0548 0.48699,-0.13091 0.70559,-0.36264 0.17117,-0.18144 0.32449,-0.42753 0.32449,-0.52081 0,-0.0398 -8.43352,-0.0258 -8.47334,0.014 -0.0374,0.0374 0.10636,0.27633 0.28469,0.47339 0.28972,0.32016 0.45539,0.38323 1.11446,0.42428 0.63352,0.0395 5.77383,0.0154 6.04411,-0.0283 z m -19.67131,-1.86951 c 0.68657,-0.011 1.2634,-0.0293 1.28186,-0.0408 0.0334,-0.0206 -0.5404,-1.31564 -2.24138,-5.058878 -0.75733,-1.66661 -1.69481,-3.70097 -1.71624,-3.72427 -0.006,-0.007 -0.0192,-0.005 -0.0284,0.004 -0.0398,0.0398 -1.19716,2.55825 -2.64925,5.76472 -1.19489,2.638528 -1.34561,2.981708 -1.32056,3.006808 0.0513,0.0514 4.48003,0.0833 6.67401,0.0482 z m 20.4069,-0.0268 c 0.0386,-0.015 0.0482,-0.0392 0.0338,-0.0855 -0.044,-0.14124 -2.57203,-5.729318 -3.42827,-7.578068 -0.46841,-1.01135 -0.52898,-1.13611 -0.55158,-1.13611 -0.01,0 -0.0977,0.17383 -0.19602,0.38628 -1.71468,3.70569 -3.81747,8.365998 -3.78813,8.395418 0.0386,0.0387 1.79177,0.0561 4.8012,0.0476 1.69129,-0.005 3.09934,-0.0181 3.129,-0.0296 z m -14.95086,-11.700528 -0.009,-0.2348 -4.30965,-0.008 -4.30965,-0.008 v 0.24247 0.24248 h 4.3185 4.3185 z m 11.4886,-0.008 v -0.24247 l -4.30965,0.008 -4.30965,0.008 -0.009,0.2348 -0.009,0.2348 h 4.3185 4.3185 z m -9.79493,-1.72545 c 0.15588,-0.0951 0.20615,-0.19879 0.20615,-0.42548 0,-0.32381 -0.1394,-0.46051 -0.4696,-0.46051 -0.31147,0 -0.44996,0.1231 -0.47426,0.42155 -0.0172,0.2113 0.0441,0.35177 0.1985,0.45493 0.13529,0.0904 0.39897,0.095 0.53921,0.01 z"
         id="path554" /></g></g></svg>
